<mxfile host="app.diagrams.net" modified="2024-04-10T11:47:21.095Z" agent="Mozilla/5.0 (Macintosh; Intel Mac OS X 10_15_7) AppleWebKit/537.36 (KHTML, like Gecko) Chrome/123.0.0.0 Safari/537.36" version="23.1.2" etag="aCs5_mrmZS9eWF4_3ICz" type="github">
  <diagram name="PÃ¡gina-1" id="P04WA62-wZ2RLuLAwNOp">
    <mxGraphModel>
      <root>
        <mxCell id="0" />
        <mxCell id="1" parent="0" />
      </root>
    </mxGraphModel>
  </diagram>
</mxfile>
